<svg width="500" height="500" viewBox="0 0 500 500" fill="none" xmlns="http://www.w3.org/2000/svg">
<g clip-path="url(#clip0_8_2)">
<path fill-rule="evenodd" clip-rule="evenodd" d="M70.3627 223.063C68.7585 221.823 64.9915 218.959 62.1195 217.279C59.8733 215.723 57.5662 214.25 55.5197 213.183C50.9845 210.826 47.7887 209.573 45.6435 208.732C43.5447 207.909 42.4515 207.481 42.0931 206.797C41.6941 206.037 41.5706 202.976 41.4146 199.108C41.2872 195.951 41.1381 192.255 40.7997 188.835C40.2007 182.882 37.5343 171.937 35.001 171.235C32.4676 170.533 22.6741 174.626 15.8465 182.245C13.311 185.075 11.1648 187.787 9.41657 189.995C7.15431 192.853 5.55822 194.87 4.64651 195.213C4.20283 195.38 3.10151 195.329 1.49275 195.256C-2.7589 195.061 -10.5548 194.705 -19.1225 197.767C-28.0112 200.945 -33.2236 206.729 -35.8073 209.597C-36.6563 210.539 -37.2215 211.166 -37.54 211.282C-37.9921 211.446 -39.2104 211.196 -41.179 210.794C-43.6995 210.278 -47.45 209.51 -52.3967 209.036C-60.9982 208.2 -74.1377 210.403 -75.4228 213.566C-76.7079 216.729 -73.2155 224.186 -69.7377 229.774C-67.776 232.921 -65.3706 236.283 -63.3278 239.138C-61.0279 242.353 -59.1877 244.925 -58.9583 245.823C-58.5531 247.411 -60.5792 252.491 -62.0804 256.255L-62.0818 256.258L-62.0845 256.265L-62.0862 256.269C-62.187 256.522 -62.2854 256.769 -62.3806 257.008C-65.4143 264.684 -67.1714 271.594 -67.8868 274.702C-68.1462 275.346 -68.3419 275.948 -68.4626 276.499C-69.2979 280.313 -70.3501 287.326 -69.8725 288.596C-69.4673 289.674 -55.9582 291.607 -55.9582 291.607C-55.9582 291.607 -67.4914 301.508 -67.1538 302.406C-66.6087 303.855 -38.6651 316.217 -16.0477 315.545C2.80527 314.985 40.3639 308.958 62.8274 284.127C82.3362 262.573 86.6521 249.91 86.1118 248.474C85.5716 247.037 72.5567 245.328 72.5567 245.328C72.5567 245.328 81.0163 233.288 80.6063 232.198C80.2011 231.121 72.6949 224.865 70.3627 223.063ZM-4.05986 266.439C-6.035 269.246 -9.01456 275.183 -9.7784 285.222C-10.162 290.302 -9.39778 295.033 -8.80526 298.701C-8.22552 302.29 -7.81019 304.861 -8.7954 305.746C-11.6722 308.336 -22.7963 307.995 -28.9284 306.289C-35.0636 304.614 -45.3341 301.053 -48.9807 291.706C-52.0903 283.736 -48.5502 276.97 -45.5252 271.189C-45.0029 270.191 -44.4959 269.222 -44.0412 268.282C-43.5259 267.219 -42.9709 265.941 -42.3568 264.527C-39.2752 257.43 -34.7046 246.903 -26.1911 243.018C-15.9811 238.359 -8.46436 242.267 -4.93387 245.815C-2.34099 248.427 1.18001 257.323 0.454074 259.792C-0.0231321 261.415 -0.975586 262.566 -2.12968 263.959C-2.73121 264.686 -3.38752 265.478 -4.05986 266.439ZM13.3852 229.936C6.01644 235.182 7.70499 243.332 8.72315 246.389C8.8844 246.874 9.06009 247.452 9.25239 248.085C10.2743 251.449 11.7652 256.357 14.0485 256.891C14.061 256.894 14.0736 256.897 14.0862 256.899C14.117 256.907 14.1481 256.914 14.1795 256.921C14.2029 256.926 14.2264 256.932 14.2501 256.937C14.2998 256.949 14.35 256.96 14.4009 256.972C17.655 257.722 23.4867 259.065 32.1562 265.601C37.3455 269.503 40.8722 275.526 43.525 280.057C45.4844 283.403 46.9671 285.935 48.2907 286.196C51.4062 286.811 56.9108 279.529 62.6517 271.044C68.1748 262.877 71.2982 256.387 70.1711 248.289C69.044 240.192 59.8008 235.703 49.8921 233.104C47.9894 232.608 45.6528 231.84 43.1128 231.006C42.6935 230.868 42.2686 230.728 41.8393 230.588C38.8341 229.604 35.6082 228.577 32.5174 227.822C32.4149 227.797 32.3125 227.772 32.2104 227.747C32.1012 227.72 31.9922 227.693 31.8834 227.666C25.9283 226.203 20.5022 224.87 13.3852 229.936ZM2.0531 282.149C0.581604 278.002 2.1544 272.023 9.3681 269.09C15.9196 266.422 21.4651 270.383 23.1393 275.186C24.8787 280.186 22.4278 283.18 21.3754 284.466C21.2261 284.648 21.1049 284.797 21.0278 284.911C20.4207 285.828 21.0561 287.712 21.9532 288.267C23.579 289.281 25.4592 289.57 28.3613 288.332C30.3991 287.462 30.9333 286.147 31.3875 285.03C31.8303 283.94 32.1971 283.038 33.8067 282.917C38.3521 282.584 37.0198 290.215 30.0902 293.319C23.3353 296.342 19.0292 293.496 19.0292 293.496C19.0292 293.496 18.0375 298.335 10.2814 300.915C1.97678 303.671 -3.61443 298.849 -0.350953 296.391C1.03007 295.344 2.30674 295.615 3.66679 295.905C4.71875 296.129 5.82059 296.363 7.05919 296.006C11.6454 294.691 12.3581 293.472 12.6638 291.014C12.9167 289.037 11.2337 288.811 9.59894 288.591C9.28803 288.549 8.97886 288.508 8.68508 288.454C8.5909 288.437 8.49027 288.42 8.38388 288.402C6.81759 288.135 4.00027 287.655 2.0531 282.149Z" fill="#4B5078"/>
<path d="M-11.0059 255.287C-9.36095 259.662 -9.86204 264.169 -13.9046 265.411C-17.2095 266.435 -21.0962 264.47 -22.7559 259.706C-24.2854 255.289 -22.9144 251.42 -19.669 250.2C-16.4236 248.979 -12.6508 250.913 -11.0059 255.287Z" fill="#4B5078"/>
<path d="M29.429 240.946C30.9072 245.382 31.7279 249.979 26.9892 251.278C23.6458 252.198 20.2401 250.111 18.76 245.28C17.3892 240.817 18.465 236.825 21.7587 235.733C25.0426 234.615 27.938 236.513 29.429 240.946Z" fill="#4B5078"/>
<path fill-rule="evenodd" clip-rule="evenodd" d="M320.363 -26.9369C318.758 -28.1766 314.992 -31.0412 312.12 -32.7214C309.873 -34.2772 307.566 -35.7503 305.52 -36.8166C300.984 -39.1742 297.789 -40.4269 295.644 -41.2679C293.545 -42.0906 292.451 -42.5191 292.093 -43.2026C291.694 -43.9634 291.571 -47.0243 291.415 -50.8918C291.287 -54.0494 291.138 -57.7447 290.8 -61.1646C290.201 -67.1181 287.534 -78.063 285.001 -78.7648C282.468 -79.4666 272.674 -75.3737 265.847 -67.7548C263.311 -64.9248 261.165 -62.2135 259.417 -60.0047C257.154 -57.1466 255.558 -55.1302 254.647 -54.7873C254.203 -54.6205 253.102 -54.6708 251.493 -54.7444C247.241 -54.9388 239.445 -55.2952 230.878 -52.2326C221.989 -49.0552 216.776 -43.2707 214.193 -40.4034C213.344 -39.4612 212.779 -38.834 212.46 -38.7179C212.008 -38.5543 210.79 -38.8036 208.821 -39.2064C206.3 -39.7222 202.55 -40.4896 197.603 -40.9642C189.002 -41.7999 175.862 -39.5967 174.577 -36.434C173.292 -33.2713 176.785 -25.8143 180.262 -20.226C182.224 -17.0792 184.629 -13.7171 186.672 -10.8619C188.972 -7.64724 190.812 -5.07522 191.042 -4.17667C191.447 -2.58882 189.421 2.49106 187.92 6.25456L187.918 6.25813L187.915 6.26501L187.914 6.26927C187.813 6.52199 187.715 6.76872 187.619 7.00802C184.586 14.6838 182.829 21.5936 182.113 24.702C181.854 25.3456 181.658 25.9484 181.537 26.4991C180.702 30.3126 179.65 37.3262 180.127 38.5962C180.533 39.6737 194.042 41.6068 194.042 41.6068C194.042 41.6068 182.509 51.5078 182.846 52.4057C183.391 53.8553 211.335 66.2171 233.952 65.545C252.805 64.9854 290.364 58.9581 312.827 34.1265C332.336 12.5731 336.652 -0.0896735 336.112 -1.52635C335.572 -2.96305 322.557 -4.6721 322.557 -4.6721C322.557 -4.6721 331.016 -16.7116 330.606 -17.8019C330.201 -18.8794 322.695 -25.1345 320.363 -26.9369ZM245.94 16.4385C243.965 19.2457 240.985 25.1833 240.222 35.2219C239.838 40.3024 240.602 45.0334 241.195 48.7014C241.774 52.2902 242.19 54.8612 241.205 55.7458C238.328 58.3357 227.204 57.9948 221.072 56.289C214.936 54.6136 204.666 51.0526 201.019 41.7063C197.91 33.7361 201.45 26.9705 204.475 21.1894C204.997 20.1911 205.504 19.2223 205.959 18.2816C206.474 17.2193 207.029 15.9412 207.643 14.5269C210.725 7.42958 215.295 -3.09667 223.809 -6.98192C234.019 -11.6414 241.536 -7.73295 245.066 -4.18496C247.659 -1.57283 251.18 7.32293 250.454 9.79216C249.977 11.4154 249.024 12.5656 247.87 13.9593C247.269 14.6858 246.612 15.4783 245.94 16.4385ZM263.385 -20.0639C256.016 -14.8184 257.705 -6.66842 258.723 -3.61053C258.884 -3.12625 259.06 -2.54789 259.252 -1.91487C260.274 1.4492 261.765 6.35693 264.049 6.89076C264.061 6.89367 264.074 6.89658 264.086 6.89951C264.117 6.90666 264.148 6.91386 264.179 6.92111C264.203 6.92651 264.226 6.93195 264.25 6.93741C264.3 6.94885 264.35 6.96043 264.401 6.97214C267.655 7.72158 273.487 9.06467 282.156 15.6014C287.346 19.5027 290.872 25.526 293.525 30.0566C295.484 33.4031 296.967 35.9352 298.291 36.1963C301.406 36.811 306.911 29.5285 312.652 21.0444C318.175 12.8766 321.298 6.38706 320.171 -1.71051C319.044 -9.80808 309.801 -14.2971 299.892 -16.8961C297.989 -17.392 295.653 -18.1598 293.113 -18.9943C292.694 -19.1321 292.269 -19.2717 291.839 -19.4122C288.834 -20.3956 285.608 -21.4229 282.517 -22.178C282.415 -22.2031 282.313 -22.2282 282.21 -22.2532C282.101 -22.28 281.992 -22.3068 281.883 -22.3335C275.928 -23.7968 270.502 -25.1302 263.385 -20.0639ZM252.053 32.1489C250.582 28.0023 252.154 22.0227 259.368 19.0903C265.92 16.4216 271.465 20.3832 273.139 25.1856C274.879 30.1859 272.428 33.1802 271.375 34.466C271.226 34.6485 271.105 34.7966 271.028 34.9111C270.421 35.8275 271.056 37.7116 271.953 38.2674C273.579 39.2812 275.459 39.5698 278.361 38.332C280.399 37.4619 280.933 36.1473 281.388 35.0297C281.83 33.9402 282.197 33.0378 283.807 32.9167C288.352 32.5837 287.02 40.2152 280.09 43.3189C273.335 46.3423 269.029 43.496 269.029 43.496C269.029 43.496 268.038 48.3345 260.281 50.9145C251.977 53.6715 246.386 48.8486 249.649 46.3915C251.03 45.3438 252.307 45.6155 253.667 45.9049C254.719 46.1288 255.821 46.3633 257.059 46.0061C261.645 44.6914 262.358 43.4716 262.664 41.014C262.917 39.0367 261.234 38.8107 259.599 38.5911C259.288 38.5493 258.979 38.5078 258.685 38.4545C258.591 38.4368 258.49 38.4197 258.384 38.4016C256.818 38.1348 254 37.6549 252.053 32.1489Z" fill="#4B5078"/>
<path d="M238.994 5.28749C240.639 9.66169 240.138 14.1694 236.095 15.4114C232.791 16.4347 228.904 14.4701 227.244 9.70617C225.715 5.28855 227.086 1.42003 230.331 0.19959C233.576 -1.02085 237.349 0.91329 238.994 5.28749Z" fill="#4B5078"/>
<path d="M279.429 -9.05443C280.907 -4.61752 281.728 -0.0211973 276.989 1.27762C273.646 2.1982 270.24 0.111335 268.76 -4.72016C267.389 -9.18283 268.465 -13.1746 271.759 -14.2668C275.043 -15.3846 277.938 -13.4865 279.429 -9.05443Z" fill="#4B5078"/>
<path fill-rule="evenodd" clip-rule="evenodd" d="M570.363 223.063C568.758 221.823 564.992 218.959 562.12 217.279C559.873 215.723 557.566 214.25 555.52 213.183C550.984 210.826 547.789 209.573 545.644 208.732C543.545 207.909 542.451 207.481 542.093 206.797C541.694 206.037 541.571 202.976 541.415 199.108C541.287 195.951 541.138 192.255 540.8 188.835C540.201 182.882 537.534 171.937 535.001 171.235C532.468 170.533 522.674 174.626 515.847 182.245C513.311 185.075 511.165 187.787 509.417 189.995C507.154 192.853 505.558 194.87 504.647 195.213C504.203 195.38 503.102 195.329 501.493 195.256C497.241 195.061 489.445 194.705 480.878 197.767C471.989 200.945 466.776 206.729 464.193 209.597C463.344 210.539 462.779 211.166 462.46 211.282C462.008 211.446 460.79 211.196 458.821 210.794C456.3 210.278 452.55 209.51 447.603 209.036C439.002 208.2 425.862 210.403 424.577 213.566C423.292 216.729 426.785 224.186 430.262 229.774C432.224 232.921 434.629 236.283 436.672 239.138C438.972 242.353 440.812 244.925 441.042 245.823C441.447 247.411 439.421 252.491 437.92 256.255L437.918 256.258L437.915 256.265L437.914 256.269C437.813 256.522 437.715 256.769 437.619 257.008C434.586 264.684 432.829 271.594 432.113 274.702C431.854 275.346 431.658 275.948 431.537 276.499C430.702 280.313 429.65 287.326 430.127 288.596C430.533 289.674 444.042 291.607 444.042 291.607C444.042 291.607 432.509 301.508 432.846 302.406C433.391 303.855 461.335 316.217 483.952 315.545C502.805 314.985 540.364 308.958 562.827 284.127C582.336 262.573 586.652 249.91 586.112 248.474C585.572 247.037 572.557 245.328 572.557 245.328C572.557 245.328 581.016 233.288 580.606 232.198C580.201 231.121 572.695 224.865 570.363 223.063ZM495.94 266.439C493.965 269.246 490.985 275.183 490.222 285.222C489.838 290.302 490.602 295.033 491.195 298.701C491.774 302.29 492.19 304.861 491.205 305.746C488.328 308.336 477.204 307.995 471.072 306.289C464.936 304.614 454.666 301.053 451.019 291.706C447.91 283.736 451.45 276.97 454.475 271.189C454.997 270.191 455.504 269.222 455.959 268.282C456.474 267.219 457.029 265.941 457.643 264.527C460.725 257.43 465.295 246.903 473.809 243.018C484.019 238.359 491.536 242.267 495.066 245.815C497.659 248.427 501.18 257.323 500.454 259.792C499.977 261.415 499.024 262.566 497.87 263.959C497.269 264.686 496.612 265.478 495.94 266.439ZM513.385 229.936C506.016 235.182 507.705 243.332 508.723 246.389C508.884 246.874 509.06 247.452 509.252 248.085C510.274 251.449 511.765 256.357 514.049 256.891C514.061 256.894 514.074 256.897 514.086 256.899C514.117 256.907 514.148 256.914 514.179 256.921C514.203 256.926 514.226 256.932 514.25 256.937C514.3 256.949 514.35 256.96 514.401 256.972C517.655 257.722 523.487 259.065 532.156 265.601C537.346 269.503 540.872 275.526 543.525 280.057C545.484 283.403 546.967 285.935 548.291 286.196C551.406 286.811 556.911 279.529 562.652 271.044C568.175 262.877 571.298 256.387 570.171 248.289C569.044 240.192 559.801 235.703 549.892 233.104C547.989 232.608 545.653 231.84 543.113 231.006C542.694 230.868 542.269 230.728 541.839 230.588C538.834 229.604 535.608 228.577 532.517 227.822C532.415 227.797 532.313 227.772 532.21 227.747C532.101 227.72 531.992 227.693 531.883 227.666C525.928 226.203 520.502 224.87 513.385 229.936ZM502.053 282.149C500.582 278.002 502.154 272.023 509.368 269.09C515.92 266.422 521.465 270.383 523.139 275.186C524.879 280.186 522.428 283.18 521.375 284.466C521.226 284.648 521.105 284.797 521.028 284.911C520.421 285.828 521.056 287.712 521.953 288.267C523.579 289.281 525.459 289.57 528.361 288.332C530.399 287.462 530.933 286.147 531.388 285.03C531.83 283.94 532.197 283.038 533.807 282.917C538.352 282.584 537.02 290.215 530.09 293.319C523.335 296.342 519.029 293.496 519.029 293.496C519.029 293.496 518.038 298.335 510.281 300.915C501.977 303.671 496.386 298.849 499.649 296.391C501.03 295.344 502.307 295.615 503.667 295.905C504.719 296.129 505.821 296.363 507.059 296.006C511.645 294.691 512.358 293.472 512.664 291.014C512.917 289.037 511.234 288.811 509.599 288.591C509.288 288.549 508.979 288.508 508.685 288.454C508.591 288.437 508.49 288.42 508.384 288.402C506.818 288.135 504 287.655 502.053 282.149Z" fill="#4B5078"/>
<path d="M488.994 255.287C490.639 259.662 490.138 264.169 486.095 265.411C482.791 266.435 478.904 264.47 477.244 259.706C475.715 255.289 477.086 251.42 480.331 250.2C483.576 248.979 487.349 250.913 488.994 255.287Z" fill="#4B5078"/>
<path d="M529.429 240.946C530.907 245.382 531.728 249.979 526.989 251.278C523.646 252.198 520.24 250.111 518.76 245.28C517.389 240.817 518.465 236.825 521.759 235.733C525.043 234.615 527.938 236.513 529.429 240.946Z" fill="#4B5078"/>
<path fill-rule="evenodd" clip-rule="evenodd" d="M320.363 473.063C318.758 471.823 314.992 468.959 312.12 467.279C309.873 465.723 307.566 464.25 305.52 463.183C300.984 460.826 297.789 459.573 295.644 458.732C293.545 457.909 292.451 457.481 292.093 456.797C291.694 456.037 291.571 452.976 291.415 449.108C291.287 445.951 291.138 442.255 290.8 438.835C290.201 432.882 287.534 421.937 285.001 421.235C282.468 420.533 272.674 424.626 265.847 432.245C263.311 435.075 261.165 437.787 259.417 439.995C257.154 442.853 255.558 444.87 254.647 445.213C254.203 445.38 253.102 445.329 251.493 445.256C247.241 445.061 239.445 444.705 230.878 447.767C221.989 450.945 216.776 456.729 214.193 459.597C213.344 460.539 212.779 461.166 212.46 461.282C212.008 461.446 210.79 461.196 208.821 460.794C206.3 460.278 202.55 459.51 197.603 459.036C189.002 458.2 175.862 460.403 174.577 463.566C173.292 466.729 176.785 474.186 180.262 479.774C182.224 482.921 184.629 486.283 186.672 489.138C188.972 492.353 190.812 494.925 191.042 495.823C191.447 497.411 189.421 502.491 187.92 506.255L187.918 506.258L187.915 506.265L187.914 506.269C187.813 506.522 187.715 506.769 187.619 507.008C184.586 514.684 182.829 521.594 182.113 524.702C181.854 525.346 181.658 525.948 181.537 526.499C180.702 530.313 179.65 537.326 180.127 538.596C180.533 539.674 194.042 541.607 194.042 541.607C194.042 541.607 182.509 551.508 182.846 552.406C183.391 553.855 211.335 566.217 233.952 565.545C252.805 564.985 290.364 558.958 312.827 534.127C332.336 512.573 336.652 499.91 336.112 498.474C335.572 497.037 322.557 495.328 322.557 495.328C322.557 495.328 331.016 483.288 330.606 482.198C330.201 481.121 322.695 474.865 320.363 473.063ZM245.94 516.439C243.965 519.246 240.985 525.183 240.222 535.222C239.838 540.302 240.602 545.033 241.195 548.701C241.774 552.29 242.19 554.861 241.205 555.746C238.328 558.336 227.204 557.995 221.072 556.289C214.936 554.614 204.666 551.053 201.019 541.706C197.91 533.736 201.45 526.97 204.475 521.189C204.997 520.191 205.504 519.222 205.959 518.282C206.474 517.219 207.029 515.941 207.643 514.527C210.725 507.43 215.295 496.903 223.809 493.018C234.019 488.359 241.536 492.267 245.066 495.815C247.659 498.427 251.18 507.323 250.454 509.792C249.977 511.415 249.024 512.566 247.87 513.959C247.269 514.686 246.612 515.478 245.94 516.439ZM263.385 479.936C256.016 485.182 257.705 493.332 258.723 496.389C258.884 496.874 259.06 497.452 259.252 498.085C260.274 501.449 261.765 506.357 264.049 506.891C264.061 506.894 264.074 506.897 264.086 506.899C264.117 506.907 264.148 506.914 264.179 506.921C264.203 506.926 264.226 506.932 264.25 506.937C264.3 506.949 264.35 506.96 264.401 506.972C267.655 507.722 273.487 509.065 282.156 515.601C287.346 519.503 290.872 525.526 293.525 530.057C295.484 533.403 296.967 535.935 298.291 536.196C301.406 536.811 306.911 529.529 312.652 521.044C318.175 512.877 321.298 506.387 320.171 498.289C319.044 490.192 309.801 485.703 299.892 483.104C297.989 482.608 295.653 481.84 293.113 481.006C292.694 480.868 292.269 480.728 291.839 480.588C288.834 479.604 285.608 478.577 282.517 477.822C282.415 477.797 282.313 477.772 282.21 477.747C282.101 477.72 281.992 477.693 281.883 477.666C275.928 476.203 270.502 474.87 263.385 479.936ZM252.053 532.149C250.582 528.002 252.154 522.023 259.368 519.09C265.92 516.422 271.465 520.383 273.139 525.186C274.879 530.186 272.428 533.18 271.375 534.466C271.226 534.648 271.105 534.797 271.028 534.911C270.421 535.828 271.056 537.712 271.953 538.267C273.579 539.281 275.459 539.57 278.361 538.332C280.399 537.462 280.933 536.147 281.388 535.03C281.83 533.94 282.197 533.038 283.807 532.917C288.352 532.584 287.02 540.215 280.09 543.319C273.335 546.342 269.029 543.496 269.029 543.496C269.029 543.496 268.038 548.335 260.281 550.915C251.977 553.671 246.386 548.849 249.649 546.391C251.03 545.344 252.307 545.615 253.667 545.905C254.719 546.129 255.821 546.363 257.059 546.006C261.645 544.691 262.358 543.472 262.664 541.014C262.917 539.037 261.234 538.811 259.599 538.591C259.288 538.549 258.979 538.508 258.685 538.454C258.591 538.437 258.49 538.42 258.384 538.402C256.818 538.135 254 537.655 252.053 532.149Z" fill="#4B5078"/>
<path d="M238.994 505.287C240.639 509.662 240.138 514.169 236.095 515.411C232.791 516.435 228.904 514.47 227.244 509.706C225.715 505.289 227.086 501.42 230.331 500.2C233.576 498.979 237.349 500.913 238.994 505.287Z" fill="#4B5078"/>
<path d="M279.429 490.946C280.907 495.382 281.728 499.979 276.989 501.278C273.646 502.198 270.24 500.111 268.76 495.28C267.389 490.817 268.465 486.825 271.759 485.733C275.043 484.615 277.938 486.513 279.429 490.946Z" fill="#4B5078"/>
</g>
<defs>
<clipPath id="clip0_8_2">
<rect width="500" height="500" fill="white"/>
</clipPath>
</defs>
</svg>
