<?xml version="1.0" standalone="no"?>
<!DOCTYPE svg PUBLIC "-//W3C//DTD SVG 20010904//EN"
 "http://www.w3.org/TR/2001/REC-SVG-20010904/DTD/svg10.dtd">
<svg version="1.0" xmlns="http://www.w3.org/2000/svg"
 width="1076.000000pt" height="1076.000000pt" viewBox="0 0 1076.000000 1076.000000"
 preserveAspectRatio="xMidYMid meet">
<metadata>
Created by potrace 1.14, written by Peter Selinger 2001-2017
</metadata>
<g transform="translate(0.000000,1076.000000) scale(0.100000,-0.100000)"
fill="#000000" stroke="none">
<path d="M5098 10756 c-1 -2 -50 -6 -108 -10 -58 -4 -118 -8 -135 -11 -16 -2
-57 -6 -89 -9 -88 -9 -329 -45 -407 -61 -38 -8 -83 -17 -101 -20 -49 -9 -346
-83 -398 -100 -25 -8 -103 -33 -175 -56 -401 -129 -776 -308 -1224 -584 -34
-21 -178 -120 -217 -149 -23 -17 -52 -38 -64 -46 -12 -8 -70 -53 -129 -99
-308 -244 -600 -531 -843 -829 -44 -53 -85 -104 -93 -113 -89 -109 -338 -485
-425 -644 -124 -224 -275 -542 -317 -665 -8 -25 -21 -58 -28 -75 -31 -70 -148
-429 -159 -487 -2 -13 -7 -30 -10 -38 -3 -8 -7 -26 -10 -40 -2 -14 -11 -52
-19 -85 -42 -160 -95 -464 -113 -640 -3 -33 -7 -71 -9 -84 -26 -158 -26 -896
-1 -1051 2 -14 7 -56 11 -95 4 -38 9 -81 10 -95 3 -26 31 -201 41 -255 43
-235 118 -529 189 -740 33 -98 113 -314 130 -350 32 -70 65 -146 65 -151 0 -8
150 -307 196 -391 86 -156 314 -514 373 -585 6 -7 37 -47 68 -88 224 -294 580
-664 832 -866 13 -10 38 -31 55 -45 87 -73 303 -230 445 -324 89 -58 162 -105
164 -105 2 0 59 -32 128 -71 251 -145 608 -306 889 -402 177 -60 405 -126 485
-141 11 -2 38 -9 60 -14 22 -6 51 -13 65 -16 14 -3 36 -7 50 -10 95 -21 129
-27 285 -50 131 -20 177 -25 255 -32 36 -3 79 -7 95 -9 165 -23 768 -23 930 0
17 2 57 6 90 9 124 11 182 19 345 46 117 20 124 22 220 41 148 29 545 138 615
168 11 5 79 30 150 56 72 26 148 55 170 65 244 106 368 166 524 252 31 17 74
41 96 53 165 90 514 327 658 445 10 8 27 22 37 30 288 235 546 490 775 765
351 421 672 967 863 1465 44 116 93 254 103 290 6 19 13 42 16 50 3 8 7 20 9
25 78 275 126 470 149 605 22 134 46 293 50 335 3 27 7 65 10 85 31 219 37
840 10 1050 -2 19 -7 62 -10 94 -3 33 -7 71 -9 85 -3 14 -7 49 -10 76 -4 28
-9 61 -11 75 -3 14 -7 41 -9 60 -10 72 -56 299 -85 416 -132 535 -325 1005
-610 1486 -288 487 -714 984 -1161 1356 -579 482 -1190 809 -1929 1036 -68 20
-404 103 -451 110 -57 9 -93 16 -120 22 -32 8 -49 10 -145 24 -44 6 -91 13
-105 15 -33 5 -99 12 -185 21 -38 3 -86 8 -105 10 -40 5 -686 14 -692 10z"/>
</g>
</svg>
